<?xml version="1.0" encoding="UTF-8"?><svg id="uuid-745739c9-1358-4e25-9789-f312cb5a61eb" xmlns="http://www.w3.org/2000/svg" viewBox="0 0 38 38"><path d="m19,9.125c-5.44531,0-9.875,4.42969-9.875,9.875s4.42969,9.875,9.875,9.875,9.875-4.42969,9.875-9.875-4.42969-9.875-9.875-9.875Zm4.39062,14.36328c-.22266.17773-.53613.18262-.7666.01172l-5.34961-4.02148-1.70508,3.77832c-.10352.23145-.33105.36816-.56934.36816-.08594,0-.17383-.01758-.25684-.05566-.31445-.1416-.45508-.51172-.3125-.82617l2.02051-4.48145c.00293-.00586.00586-.01172.00781-.01758l1.97168-4.36914c.20117-.44922.9375-.44922,1.13867,0l4,8.86816c.11814.25977.04395.56641-.17871.74512Z"/><path d="m28,1H10C5.02942,1,1,5.02942,1,10v18c0,4.97052,4.02942,9,9,9h18c4.97058,0,9-4.02948,9-9V10c0-4.97058-4.02942-9-9-9Zm-9,29.125c-6.13477,0-11.125-4.99023-11.125-11.125s4.99023-11.125,11.125-11.125,11.125,4.99023,11.125,11.125-4.99023,11.125-11.125,11.125Z"/><polygon points="17.80078 18.31055 21.42969 21.03809 19 15.65234 17.80078 18.31055"/></svg>